<?xml version="1.0" encoding="UTF-8" standalone="no"?>
<svg
   width="200"
   height="200"
   version="1.1"
   id="svg6"
   sodipodi:docname="archtils_logo.svg"
   inkscape:version="1.3.2 (091e20ef0f, 2023-11-25, custom)"
   inkscape:export-filename="archtils_logo.png"
   inkscape:export-xdpi="96"
   inkscape:export-ydpi="96"
   xmlns:inkscape="http://www.inkscape.org/namespaces/inkscape"
   xmlns:sodipodi="http://sodipodi.sourceforge.net/DTD/sodipodi-0.dtd"
   xmlns="http://www.w3.org/2000/svg"
   xmlns:svg="http://www.w3.org/2000/svg">
  <defs
     id="defs6" />
  <sodipodi:namedview
     id="namedview6"
     pagecolor="#ffffff"
     bordercolor="#000000"
     borderopacity="0.25"
     inkscape:showpageshadow="2"
     inkscape:pageopacity="0.0"
     inkscape:pagecheckerboard="0"
     inkscape:deskcolor="#d1d1d1"
     inkscape:zoom="2.4324851"
     inkscape:cx="63.309741"
     inkscape:cy="113.66976"
     inkscape:window-width="1920"
     inkscape:window-height="972"
     inkscape:window-x="0"
     inkscape:window-y="28"
     inkscape:window-maximized="1"
     inkscape:current-layer="svg6" />
  <path
     d="m92.424 3.5957-5.8926 18.131a79.55 79.55 0 0 0-13.891 3.791l-14.24-12.818-13.164 7.5996 3.957 18.619a79.55 79.55 0 0 0-10.244 10.232l-18.625-3.9551-7.6016 13.164 12.812 14.23a79.55 79.55 0 0 0-3.7969 13.887l-18.143 5.8984v15.201l18.131 5.8926a79.55 79.55 0 0 0 3.791 13.891l-12.818 14.24 7.5996 13.164 18.619-3.957a79.55 79.55 0 0 0 10.232 10.244l-3.9551 18.625 13.164 7.6016 14.23-12.812a79.55 79.55 0 0 0 13.887 3.7969l5.8984 18.143h15.201l5.8926-18.131a79.55 79.55 0 0 0 13.891-3.791l14.24 12.818 13.164-7.5996-3.957-18.619a79.55 79.55 0 0 0 10.244-10.232l18.625 3.9551 7.6016-13.164-12.812-14.23a79.55 79.55 0 0 0 3.7969-13.887l18.143-5.8984v-15.201l-18.02-5.8555a79.55 79.55 0 0 0-3.7617-14.082l12.678-14.086-7.5996-13.164-18.521 3.9355a79.55 79.55 0 0 0-10.311-10.314l3.9356-18.533-13.164-7.6016-14.076 12.674a79.55 79.55 0 0 0-14.078-3.7715l-5.8613-18.029h-15.201zm7.5762 29.02a67.385 67.385 0 0 1 67.385 67.385 67.385 67.385 0 0 1-67.385 67.385 67.385 67.385 0 0 1-67.385-67.385 67.385 67.385 0 0 1 67.385-67.385z"
     id="path5" />
  <path
     d="m 100.37709,50.111018 c -3.773904,9.252601 -6.050138,15.30489 -10.251882,24.282446 2.576195,2.730767 5.738354,5.910881 10.873692,9.502522 -5.520992,-2.271855 -9.286982,-4.55274 -12.101367,-6.919622 -5.377431,11.220839 -13.80232,27.204426 -30.899134,57.923916 13.437522,-7.75771 23.854049,-12.54042 33.561753,-14.36538 -0.416853,-1.79288 -0.65385,-3.73222 -0.637753,-5.75572 l 0.01594,-0.43049 c 0.213222,-8.60906 4.69165,-15.229431 9.996781,-14.779922 5.30513,0.449512 9.42875,7.797132 9.21553,16.406192 -0.0401,1.61996 -0.22283,3.17834 -0.54209,4.62371 9.60231,1.87839 19.90745,6.64885 33.16316,14.30161 -2.61377,-4.81213 -4.94678,-9.14991 -7.17472,-13.2812 -3.50938,-2.72 -7.16982,-6.26008 -14.63644,-10.09244 5.13212,1.33354 8.80666,2.87209 11.67088,4.59182 C 109.97934,73.944186 108.145,68.340096 100.37709,50.111018 Z"
     id="path2518"
     style="fill:#1793d1;fill-opacity:1;fill-rule:evenodd;stroke:none;stroke-width:0.510202" />
</svg>
