<?xml version="1.0" encoding="UTF-8" standalone="no"?>
<!-- Created with Inkscape (http://www.inkscape.org/) -->

<svg
   version="1.0"
   width="600"
   height="199.41692"
   id="svg2424"
   sodipodi:docname="archlinux-logo-light-scalable.1ae4cc2e2469.svg"
   inkscape:version="1.3.2 (091e20ef0f, 2023-11-25, custom)"
   xmlns:inkscape="http://www.inkscape.org/namespaces/inkscape"
   xmlns:sodipodi="http://sodipodi.sourceforge.net/DTD/sodipodi-0.dtd"
   xmlns:xlink="http://www.w3.org/1999/xlink"
   xmlns="http://www.w3.org/2000/svg"
   xmlns:svg="http://www.w3.org/2000/svg">
  <sodipodi:namedview
     id="namedview1"
     pagecolor="#ffffff"
     bordercolor="#000000"
     borderopacity="0.25"
     inkscape:showpageshadow="2"
     inkscape:pageopacity="0.0"
     inkscape:pagecheckerboard="0"
     inkscape:deskcolor="#d1d1d1"
     inkscape:zoom="0.71397098"
     inkscape:cx="42.018514"
     inkscape:cy="32.914503"
     inkscape:window-width="1920"
     inkscape:window-height="972"
     inkscape:window-x="0"
     inkscape:window-y="28"
     inkscape:window-maximized="1"
     inkscape:current-layer="layer1" />
  <defs
     id="defs2426">
    <linearGradient
       x1="112.49854"
       y1="6.1372099"
       x2="112.49853"
       y2="129.3468"
       id="path1082_2_"
       gradientUnits="userSpaceOnUse"
       gradientTransform="translate(287,-83)">
      <stop
         id="stop193"
         style="stop-color:#ffffff;stop-opacity:0"
         offset="0" />
      <stop
         id="stop195"
         style="stop-color:#ffffff;stop-opacity:0.27450982"
         offset="1" />
      <midPointStop
         offset="0"
         style="stop-color:#FFFFFF"
         id="midPointStop197" />
      <midPointStop
         offset="0.5"
         style="stop-color:#FFFFFF"
         id="midPointStop199" />
      <midPointStop
         offset="1"
         style="stop-color:#000000"
         id="midPointStop201" />
    </linearGradient>
    <linearGradient
       x1="541.33502"
       y1="104.50665"
       x2="606.91248"
       y2="303.14029"
       id="linearGradient2544"
       xlink:href="#path1082_2_"
       gradientUnits="userSpaceOnUse"
       gradientTransform="matrix(-0.3937741,0,0,0.393752,357.51969,122.00151)" />
    <linearGradient
       id="linearGradient3388">
      <stop
         id="stop3390"
         style="stop-color:#000000;stop-opacity:0"
         offset="0" />
      <stop
         id="stop3392"
         style="stop-color:#000000;stop-opacity:0.37113401"
         offset="1" />
    </linearGradient>
    <linearGradient
       x1="490.72305"
       y1="237.72447"
       x2="490.72305"
       y2="183.9644"
       id="linearGradient4416"
       xlink:href="#linearGradient3388"
       gradientUnits="userSpaceOnUse"
       gradientTransform="matrix(0.749107,0,0,0.749107,-35.459862,91.44108)" />
  </defs>
  <g
     transform="translate(-34.777313,-129.80241)"
     id="layer1">
    <g
       transform="matrix(0.8746356,0,0,0.8746356,14.730518,23.408954)"
       id="g2424">
      <g
         transform="matrix(0.6378586,0,0,0.6378586,36.486487,2.17139)"
         id="g2809"
         style="fill:#ffffff;fill-opacity:1">
        <rect
           style="fill:#808080;stroke:#000000;stroke-width:5.08"
           id="rect1"
           width="673.06134"
           height="245.57643"
           x="-30.697054"
           y="-19.327776"
           rx="20"
           ry="20"
           transform="matrix(1.7924557,0,0,1.7924557,-21.268536,187.30137)" />
        <text
           xml:space="preserve"
           style="font-style:normal;font-variant:normal;font-weight:normal;font-stretch:normal;font-size:179.246px;font-family:C059;-inkscape-font-specification:C059;letter-spacing:5.37737px;word-spacing:4.87556px;fill:#808080;stroke:#000000;stroke-width:9.10567"
           x="571.91144"
           y="435.05286"
           id="text1"><tspan
             sodipodi:role="line"
             id="tspan1"
             style="font-style:normal;font-variant:normal;font-weight:normal;font-stretch:normal;font-size:179.246px;font-family:Serif;-inkscape-font-specification:Serif;letter-spacing:5.37737px;word-spacing:4.87556px;fill:#1793d1;fill-opacity:1;stroke:#1793d1;stroke-width:9.10567;stroke-opacity:1"
             x="571.91144"
             y="435.05286"
             dx="0">Utils</tspan></text>
        <path
           d="m 339.96875,309.09375 c -14.47141,-0.0239 -26.4812,2.94367 -31.125,4.5625 l -4.78125,25.8125 c -0.0116,0.0951 23.79543,-6.34855 34.28125,-5.96875 17.36158,0.62381 18.95948,6.63541 18.65625,14.75 0.29595,0.47462 -4.47933,-7.33192 -19.5,-7.59375 -18.94961,-0.32687 -45.69284,6.70947 -45.65625,35.3125 -0.51086,32.17412 24.03361,41.63882 40.75,41.8125 15.02821,-0.27364 22.0777,-5.69136 25.9375,-8.59375 5.07124,-5.30236 10.87308,-10.63447 16.40625,-17.03125 -5.23567,9.51278 -9.77472,16.0898 -14.5,21.125 l 0,4.25 22.84375,-3.84375 0.15625,-62.09375 c -0.23141,-8.78839 5.04123,-42.41827 -43.46875,-42.5 z m -3.28125,54.0625 c 9.46889,0.12995 20.32788,4.79708 20.34375,16.03125 0.049,10.21821 -12.80005,15.71183 -21.15625,15.625 -8.35976,-0.0868 -19.45093,-6.56982 -19.5,-16.53125 0.16016,-8.90444 10.45953,-15.35418 20.3125,-15.125 z"
           id="path2284"
           style="fill:#ffffff;fill-opacity:1;fill-rule:evenodd;stroke:none" />
        <path
           d="m 398.50106,314.83145 -0.15505,102.82693 26.61213,-5.12724 0.0449,-58.30157 c 0.006,-8.68089 12.40554,-18.82451 27.9627,-18.66287 3.30202,-5.97408 9.5087,-21.24219 11.02088,-24.71514 -34.75649,-0.0833 -35.19897,9.98993 -41.24398,14.94517 -0.0631,-9.45285 -0.0213,-15.12741 -0.0213,-15.12741 l -24.2202,4.16213 z"
           id="path2286"
           style="display:none;fill:#ffffff;fill-opacity:1;fill-rule:evenodd;stroke:none" />
        <path
           d="m 548.2688,328.33058 c -0.25696,-0.12068 -13.87938,-15.93419 -41.26638,-16.0589 -25.65249,-0.42638 -54.42578,9.51895 -54.88631,52.5328 0.22457,37.81852 27.6402,52.59809 55.0314,52.88627 29.31292,0.30451 40.97654,-18.32947 41.67615,-18.79124 -3.49762,-3.0321 -16.59792,-16.0131 -16.59792,-16.0131 0,0 -8.18236,11.65102 -24.05802,11.79913 -15.87942,0.1512 -29.68245,-12.27325 -29.87805,-29.60905 -0.20349,-17.33595 12.68881,-26.72821 29.99725,-27.48687 14.98466,-0.003 23.6297,9.67334 23.6297,9.67334 z"
           id="path2288"
           style="display:inline;fill:#ffffff;fill-opacity:1;fill-rule:evenodd;stroke:none" />
        <path
           d="m 581.8125,278.84375 -25.125,5.90625 0.1875,133.9375 24.75,-4.46875 0.28125,-63.03125 c 0.0529,-6.60927 9.56127,-16.75916 25.4375,-16.4375 15.17973,0.15775 18.57236,10.11767 18.53125,11.375 l 0.4375,72.96875 24.40625,-4.3125 0.0937,-77.375 c 0.1607,-7.44539 -16.30833,-23.16954 -42.78125,-23.28125 -12.58087,0.0202 -19.54815,2.86825 -23.09375,4.96875 -6.06656,4.68565 -12.9998,9.17543 -19.8125,14.90625 6.29809,-8.09099 11.58551,-13.68516 16.75,-17.84375 l -0.0625,-37.3125 z"
           id="path2290"
           style="fill:#ffffff;fill-opacity:1;fill-rule:evenodd;stroke:none" />
      </g>
      <path
         d="m 105.8125,16.625 c -7.39687,18.135158 -11.858304,29.997682 -20.09375,47.59375 5.04936,5.35232 11.247211,11.585364 21.3125,18.625 C 96.210077,78.390904 88.828713,73.920352 83.3125,69.28125 72.7727,91.274163 56.259864,122.60209 22.75,182.8125 49.087628,167.60733 69.504089,158.23318 88.53125,154.65625 87.714216,151.1422 87.2497,147.34107 87.28125,143.375 l 0.03125,-0.84375 c 0.417917,-16.87382 9.195665,-29.84979 19.59375,-28.96875 10.39809,0.88104 18.48041,15.28242 18.0625,32.15625 -0.0786,3.17512 -0.43674,6.22955 -1.0625,9.0625 18.82058,3.68164 39.01873,13.03179 65,28.03125 -5.123,-9.4318 -9.69572,-17.93388 -14.0625,-26.03125 -6.87839,-5.33121 -14.05289,-12.2698 -28.6875,-19.78125 10.05899,2.61375 17.2611,5.62932 22.875,9 C 124.63297,63.338161 121.03766,52.354109 105.8125,16.625 z"
         transform="matrix(1.1433333,0,0,1.1433333,22.920168,121.64318)"
         id="path2518"
         style="fill:#1793d1;fill-opacity:1;fill-rule:evenodd;stroke:none" />
      <g
         id="text2638"
         style="font-size:8.25130367px;font-style:normal;font-weight:normal;fill:#ffffff;fill-opacity:1;stroke:none;font-family:DejaVu Sans Mono">
        <path
           d="m 239.84053,313.69965 0,-5.20945 -1.94598,0 0,-0.697 4.68164,0 0,0.697 -1.95404,0 0,5.20945 -0.78162,0"
           id="path2883"
           style="fill:#ffffff;fill-opacity:1" />
        <path
           d="m 243.39004,313.69965 0,-5.90645 1.17646,0 1.39805,4.18205 c 0.12892,0.38947 0.22293,0.6809 0.28202,0.87429 0.0671,-0.21488 0.1719,-0.53048 0.31426,-0.94681 l 1.41417,-4.10953 1.05155,0 0,5.90645 -0.75341,0 0,-4.94353 -1.71634,4.94353 -0.70506,0 -1.70828,-5.02814 0,5.02814 -0.75342,0"
           id="path2885"
           style="fill:#ffffff;fill-opacity:1" />
      </g>
    </g>
    <path
       d="m 298.26461,201.49 c 0.78038,-4.58171 -0.6865,-9.40931 -3.72146,-11.95682 -2.57882,3.84237 -5.15766,7.68472 -7.73658,11.52718 -2.95495,-1.37568 -5.52746,-3.79673 -7.2787,-6.96169 2.68252,-3.99734 5.36509,-7.99465 8.04768,-11.99241 -3.25961,-2.01657 -7.51847,-1.62944 -10.99182,0.37461 -3.71291,2.1479 -7.03832,6.35153 -7.35089,11.43692 -0.97037,4.36585 0.48362,8.62721 2.76867,11.69306 2.03242,2.27335 3.19845,5.51502 3.06514,9.01622 -0.0813,9.03522 -2.31364,17.91427 -3.77074,26.82561 -1.15473,6.55723 -2.38292,13.10378 -3.49047,19.66761 -0.65142,4.91293 3.90601,8.7205 7.60938,6.39394 2.64501,-1.31077 3.45573,-4.75549 3.86891,-7.77168 2.21395,-12.41163 4.45191,-24.82689 6.66282,-37.23289 0.0962,-3.36072 1.3832,-6.71539 3.77243,-8.73018 2.95923,-2.61943 6.41063,-5.0561 7.80354,-9.4096 0.33494,-0.92941 0.58618,-1.89739 0.74235,-2.88019 z"
       id="path6-0"
       style="fill:#ffffff;stroke-width:0.781244" />
    <rect
       style="fill:#808080;fill-opacity:1;stroke:#808080;stroke-width:2.5;stroke-linejoin:miter;stroke-dasharray:none;stroke-dashoffset:0;stroke-opacity:1"
       id="rect2"
       width="2.9736996"
       height="3.9329576"
       x="350.46912"
       y="190.95511"
       rx="20"
       ry="3.9329576" />
    <ellipse
       style="fill:#808080;fill-opacity:1;stroke:#808080;stroke-width:2.5;stroke-linejoin:miter;stroke-dasharray:none;stroke-dashoffset:0;stroke-opacity:1"
       id="path2"
       cx="491.98077"
       cy="196.51042"
       rx="14.043793"
       ry="12.873477" />
    <path
       d="m 490.8778,179.64259 -0.91686,2.82109 a 12.377535,12.377534 0 0 0 -2.16136,0.58985 l -2.21566,-1.99441 -2.04824,1.18246 0.61568,2.89701 a 12.377535,12.377534 0 0 0 -1.59391,1.59204 l -2.89795,-0.61539 -1.18276,2.04824 1.99348,2.21411 a 12.377535,12.377534 0 0 0 -0.59078,2.16074 l -2.82295,0.91776 v 2.36519 l 2.82109,0.91686 a 12.377535,12.377534 0 0 0 0.58985,2.16136 l -1.99441,2.21566 1.18246,2.04824 2.89701,-0.61568 a 12.377535,12.377534 0 0 0 1.59204,1.59391 l -0.61539,2.89795 2.04824,1.18276 2.21411,-1.99348 a 12.377535,12.377534 0 0 0 2.16074,0.59078 l 0.91776,2.82295 h 2.36519 l 0.91685,-2.82109 a 12.377535,12.377534 0 0 0 2.16137,-0.58985 l 2.21566,1.99441 2.04824,-1.18246 -0.61568,-2.89701 a 12.377535,12.377534 0 0 0 1.59391,-1.59204 l 2.89795,0.61539 1.18276,-2.04824 -1.99348,-2.21411 a 12.377535,12.377534 0 0 0 0.59078,-2.16074 l 2.82295,-0.91776 v -2.36519 l -2.80381,-0.91108 a 12.377535,12.377534 0 0 0 -0.5853,-2.19108 l 1.97262,-2.1917 -1.18245,-2.04826 -2.88177,0.61236 a 12.377535,12.377534 0 0 0 -1.60433,-1.60481 l 0.61236,-2.88363 -2.04825,-1.18276 -2.19014,1.972 a 12.377535,12.377534 0 0 0 -2.19046,-0.58683 l -0.91199,-2.80521 h -2.36519 z m 1.17881,4.51535 a 10.484729,10.484728 0 0 1 10.48473,10.48473 10.484729,10.484728 0 0 1 -10.48473,10.48472 10.484729,10.484728 0 0 1 -10.48473,-10.48472 10.484729,10.484728 0 0 1 10.48473,-10.48473 z"
       id="path5-1"
       style="stroke-width:0.155594" />
  </g>
</svg>
